<svg width="576" height="81" viewBox="0 0 576 81" fill="none" xmlns="http://www.w3.org/2000/svg">
<path d="M62.4 31.16C63.4133 31.16 64.2667 31.5067 64.96 32.2C65.6533 32.8933 66 33.7467 66 34.76C66 45 66 50.12 66 50.12C66 51.1867 65.6267 52.04 64.88 52.68C61.4667 55.6133 58.1333 57.6667 54.88 58.84C50.9867 60.2267 46.6667 60.92 41.92 60.92C39.04 60.92 37.6 60.92 37.6 60.92C32.8 60.92 28.4533 60.2267 24.56 58.84C20.6667 57.4 17.3067 55.32 14.48 52.6C11.8133 49.9867 9.78667 46.92 8.4 43.4C7.06667 40.0933 6.4 36.4133 6.4 32.36C6.4 28.36 7.06667 24.68 8.4 21.32C9.73333 17.9067 11.76 14.84 14.48 12.12C17.1467 9.45333 20.5067 7.4 24.56 5.96C28.4533 4.52 32.8 3.8 37.6 3.8C40.48 3.8 41.92 3.8 41.92 3.8C46.0267 3.8 49.84 4.33333 53.36 5.4C56.72 6.41333 59.7867 7.96 62.56 10.04C63.36 10.6267 63.8133 11.4267 63.92 12.44C64.08 13.4 63.8667 14.28 63.28 15.08C62.6933 15.88 61.8933 16.36 60.88 16.52C59.8667 16.6267 58.96 16.3867 58.16 15.8C53.7867 12.6 48.3733 11 41.92 11C39.04 11 37.6 11 37.6 11C33.92 11 30.5867 11.5067 27.6 12.52C24.6667 13.48 22.16 14.8933 20.08 16.76C18 18.6267 16.4 20.8933 15.28 23.56C14.16 26.1733 13.6 29.1067 13.6 32.36C13.6 35.6667 14.16 38.6533 15.28 41.32C16.4 43.9333 18 46.1733 20.08 48.04C22.16 49.8533 24.6667 51.2667 27.6 52.28C30.5867 53.24 33.92 53.72 37.6 53.72C40.48 53.72 41.92 53.72 41.92 53.72C45.3867 53.72 48.5333 53.2933 51.36 52.44C54.24 51.5333 56.72 50.2267 58.8 48.52V38.36C58.8 37.1867 58.8 36.0133 58.8 34.84C58.8 32.5467 60 31.32 62.4 31.16ZM125.979 3.8C126.939 3.8 127.766 4.17333 128.459 4.92C129.206 5.61333 129.579 6.44 129.579 7.4C129.579 8.41333 129.206 9.26667 128.459 9.96C127.766 10.6533 126.939 11 125.979 11H72.8594C71.846 11 70.9927 10.6533 70.2994 9.96C69.606 9.26667 69.2594 8.41333 69.2594 7.4C69.2594 6.44 69.606 5.61333 70.2994 4.92C70.9927 4.17333 71.846 3.8 72.8594 3.8H125.979ZM125.979 53.72C126.939 53.72 127.766 54.0667 128.459 54.76C129.206 55.4533 129.579 56.3067 129.579 57.32C129.579 58.3333 129.206 59.1867 128.459 59.88C127.766 60.5733 126.939 60.92 125.979 60.92H72.8594C71.846 60.92 70.9927 60.5733 70.2994 59.88C69.606 59.1867 69.2594 58.3333 69.2594 57.32C69.2594 56.3067 69.606 55.4533 70.2994 54.76C70.9927 54.0667 71.846 53.72 72.8594 53.72H125.979ZM125.979 28.76C126.939 28.76 127.766 29.1067 128.459 29.8C129.206 30.4933 129.579 31.3467 129.579 32.36C129.579 33.3733 129.206 34.2267 128.459 34.92C127.766 35.6133 126.939 35.96 125.979 35.96H72.8594C71.846 35.96 70.9927 35.6133 70.2994 34.92C69.606 34.2267 69.2594 33.3733 69.2594 32.36C69.2594 31.3467 69.606 30.4933 70.2994 29.8C70.9927 29.1067 71.846 28.76 72.8594 28.76H125.979ZM169.424 3.8C172.784 3.8 175.984 4.44 179.024 5.72C182.064 7 184.784 8.84 187.184 11.24C189.584 13.64 191.424 16.36 192.704 19.4C193.984 22.44 194.624 25.6667 194.624 29.08V57.32C194.624 58.3333 194.278 59.1867 193.584 59.88C192.891 60.5733 192.038 60.92 191.024 60.92C190.011 60.92 189.158 60.5733 188.464 59.88C187.771 59.1867 187.424 58.3333 187.424 57.32V29.08C187.424 26.6267 186.944 24.3067 185.984 22.12C185.078 19.88 183.798 17.96 182.144 16.36C180.491 14.7067 178.571 13.4 176.384 12.44C174.198 11.48 171.878 11 169.424 11H159.584C157.078 11 154.731 11.48 152.544 12.44C150.411 13.4 148.518 14.7067 146.864 16.36C145.211 17.96 143.904 19.88 142.944 22.12C142.038 24.3067 141.584 26.6267 141.584 29.08V57.32C141.584 58.3333 141.211 59.1867 140.464 59.88C139.771 60.5733 138.944 60.92 137.984 60.92C136.971 60.92 136.118 60.5733 135.424 59.88C134.731 59.1867 134.384 58.3333 134.384 57.32V29.08C134.384 25.6667 134.998 22.44 136.224 19.4C137.504 16.36 139.344 13.64 141.744 11.24C144.144 8.84 146.864 7 149.904 5.72C152.998 4.44 156.224 3.8 159.584 3.8H169.424ZM256.151 3.8C257.111 3.8 257.938 4.17333 258.631 4.92C259.378 5.61333 259.751 6.44 259.751 7.4C259.751 8.41333 259.378 9.26667 258.631 9.96C257.938 10.6533 257.111 11 256.151 11H203.031C202.018 11 201.165 10.6533 200.471 9.96C199.778 9.26667 199.431 8.41333 199.431 7.4C199.431 6.44 199.778 5.61333 200.471 4.92C201.165 4.17333 202.018 3.8 203.031 3.8H256.151ZM256.151 53.72C257.111 53.72 257.938 54.0667 258.631 54.76C259.378 55.4533 259.751 56.3067 259.751 57.32C259.751 58.3333 259.378 59.1867 258.631 59.88C257.938 60.5733 257.111 60.92 256.151 60.92H203.031C202.018 60.92 201.165 60.5733 200.471 59.88C199.778 59.1867 199.431 58.3333 199.431 57.32C199.431 56.3067 199.778 55.4533 200.471 54.76C201.165 54.0667 202.018 53.72 203.031 53.72H256.151ZM256.151 28.76C257.111 28.76 257.938 29.1067 258.631 29.8C259.378 30.4933 259.751 31.3467 259.751 32.36C259.751 33.3733 259.378 34.2267 258.631 34.92C257.938 35.6133 257.111 35.96 256.151 35.96H203.031C202.018 35.96 201.165 35.6133 200.471 34.92C199.778 34.2267 199.431 33.3733 199.431 32.36C199.431 31.3467 199.778 30.4933 200.471 29.8C201.165 29.1067 202.018 28.76 203.031 28.76H256.151ZM313.996 53.72C315.01 53.72 315.863 54.0667 316.556 54.76C317.25 55.4533 317.596 56.3067 317.596 57.32C317.596 58.3333 317.25 59.1867 316.556 59.88C315.863 60.5733 315.01 60.92 313.996 60.92H287.356C284.316 60.92 281.41 60.36 278.636 59.24C275.863 58.0667 273.383 56.4133 271.196 54.28C269.01 52.0933 267.356 49.6133 266.236 46.84C265.116 44.0667 264.556 41.16 264.556 38.12V7.4C264.556 6.44 264.903 5.61333 265.596 4.92C266.29 4.17333 267.143 3.8 268.156 3.8C269.17 3.8 270.023 4.17333 270.716 4.92C271.41 5.61333 271.756 6.44 271.756 7.4V38.12C271.756 40.2533 272.156 42.28 272.956 44.2C273.81 46.0667 274.93 47.72 276.316 49.16C277.703 50.5467 279.33 51.6667 281.196 52.52C283.116 53.32 285.17 53.72 287.356 53.72H313.996ZM365.449 53.72C366.463 53.72 367.316 54.0667 368.009 54.76C368.703 55.4533 369.049 56.3067 369.049 57.32C369.049 58.3333 368.703 59.1867 368.009 59.88C367.316 60.5733 366.463 60.92 365.449 60.92H338.809C335.769 60.92 332.863 60.36 330.089 59.24C327.316 58.0667 324.836 56.4133 322.649 54.28C320.463 52.0933 318.809 49.6133 317.689 46.84C316.569 44.0667 316.009 41.16 316.009 38.12V7.4C316.009 6.44 316.356 5.61333 317.049 4.92C317.743 4.17333 318.596 3.8 319.609 3.8C320.623 3.8 321.476 4.17333 322.169 4.92C322.863 5.61333 323.209 6.44 323.209 7.4V38.12C323.209 40.2533 323.609 42.28 324.409 44.2C325.263 46.0667 326.383 47.72 327.769 49.16C329.156 50.5467 330.783 51.6667 332.649 52.52C334.569 53.32 336.623 53.72 338.809 53.72H365.449ZM375.047 3.8C376.06 3.8 376.914 4.17333 377.607 4.92C378.3 5.61333 378.647 6.44 378.647 7.4V57.32C378.647 58.3333 378.3 59.1867 377.607 59.88C376.914 60.5733 376.06 60.92 375.047 60.92C374.034 60.92 373.18 60.5733 372.487 59.88C371.794 59.1867 371.447 58.3333 371.447 57.32V7.4C371.447 6.44 371.794 5.61333 372.487 4.92C373.18 4.17333 374.034 3.8 375.047 3.8ZM424.967 3.8C427.527 3.8 429.954 4.30666 432.247 5.32C434.54 6.28 436.514 7.61333 438.167 9.32C439.874 11.0267 441.207 13.0267 442.167 15.32C443.18 17.6133 443.687 20.04 443.687 22.6C443.687 25.16 443.18 27.5867 442.167 29.88C441.207 32.1733 439.874 34.1733 438.167 35.88C436.514 37.5333 434.54 38.8667 432.247 39.88C429.954 40.84 427.527 41.32 424.967 41.32H390.647V57.32C390.647 58.3333 390.274 59.1867 389.527 59.88C388.834 60.5733 388.007 60.92 387.047 60.92C386.034 60.92 385.18 60.5733 384.487 59.88C383.794 59.1867 383.447 58.3333 383.447 57.32V37.72C383.447 36.7067 383.794 35.8533 384.487 35.16C385.18 34.4667 386.034 34.12 387.047 34.12H424.967C426.567 34.12 428.06 33.8267 429.447 33.24C430.834 32.6 432.034 31.7733 433.047 30.76C434.114 29.6933 434.94 28.4667 435.527 27.08C436.167 25.6933 436.487 24.2 436.487 22.6C436.487 21 436.167 19.5067 435.527 18.12C434.94 16.68 434.114 15.4533 433.047 14.44C432.034 13.3733 430.834 12.5467 429.447 11.96C428.06 11.32 426.567 11 424.967 11H387.047C386.034 11 385.18 10.6533 384.487 9.96C383.794 9.26667 383.447 8.41333 383.447 7.4C383.447 6.44 383.794 5.61333 384.487 4.92C385.18 4.17333 386.034 3.8 387.047 3.8H424.967ZM490.232 28.76C492.472 28.76 494.552 29.1867 496.472 30.04C498.445 30.8933 500.152 32.04 501.592 33.48C503.032 34.92 504.179 36.6267 505.032 38.6C505.885 40.52 506.312 42.6 506.312 44.84C506.312 47.08 505.885 49.1867 505.032 51.16C504.179 53.08 503.032 54.76 501.592 56.2C500.152 57.64 498.445 58.7867 496.472 59.64C494.552 60.4933 492.472 60.92 490.232 60.92H453.272C452.259 60.92 451.405 60.5733 450.712 59.88C450.019 59.1867 449.672 58.3333 449.672 57.32C449.672 56.3067 450.019 55.4533 450.712 54.76C451.405 54.0667 452.259 53.72 453.272 53.72H490.232C491.459 53.72 492.605 53.48 493.672 53C494.739 52.52 495.672 51.88 496.472 51.08C497.272 50.28 497.912 49.3467 498.392 48.28C498.872 47.2133 499.112 46.0667 499.112 44.84C499.112 43.6133 498.872 42.4667 498.392 41.4C497.912 40.3333 497.272 39.4 496.472 38.6C495.672 37.8 494.739 37.16 493.672 36.68C492.605 36.2 491.459 35.96 490.232 35.96H462.152C459.912 35.96 457.805 35.5333 455.832 34.68C453.912 33.8267 452.232 32.68 450.792 31.24C449.352 29.8 448.205 28.12 447.352 26.2C446.499 24.2267 446.072 22.12 446.072 19.88C446.072 17.6933 446.499 15.64 447.352 13.72C448.205 11.7467 449.352 10.04 450.792 8.6C452.232 7.10666 453.912 5.93333 455.832 5.08C457.805 4.22666 459.912 3.8 462.152 3.8H499.112C500.125 3.8 500.979 4.17333 501.672 4.92C502.365 5.61333 502.712 6.44 502.712 7.4C502.712 8.41333 502.365 9.26667 501.672 9.96C500.979 10.6533 500.125 11 499.112 11H462.152C460.925 11 459.779 11.24 458.712 11.72C457.645 12.2 456.712 12.84 455.912 13.64C455.112 14.44 454.472 15.3733 453.992 16.44C453.512 17.5067 453.272 18.6533 453.272 19.88C453.272 21.1067 453.512 22.2533 453.992 23.32C454.472 24.3867 455.112 25.32 455.912 26.12C456.712 26.92 457.645 27.56 458.712 28.04C459.779 28.52 460.925 28.76 462.152 28.76H490.232ZM565.417 3.8C566.377 3.8 567.204 4.17333 567.897 4.92C568.644 5.61333 569.017 6.44 569.017 7.4C569.017 8.41333 568.644 9.26667 567.897 9.96C567.204 10.6533 566.377 11 565.417 11H512.297C511.284 11 510.43 10.6533 509.737 9.96C509.044 9.26667 508.697 8.41333 508.697 7.4C508.697 6.44 509.044 5.61333 509.737 4.92C510.43 4.17333 511.284 3.8 512.297 3.8H565.417ZM565.417 53.72C566.377 53.72 567.204 54.0667 567.897 54.76C568.644 55.4533 569.017 56.3067 569.017 57.32C569.017 58.3333 568.644 59.1867 567.897 59.88C567.204 60.5733 566.377 60.92 565.417 60.92H512.297C511.284 60.92 510.43 60.5733 509.737 59.88C509.044 59.1867 508.697 58.3333 508.697 57.32C508.697 56.3067 509.044 55.4533 509.737 54.76C510.43 54.0667 511.284 53.72 512.297 53.72H565.417ZM565.417 28.76C566.377 28.76 567.204 29.1067 567.897 29.8C568.644 30.4933 569.017 31.3467 569.017 32.36C569.017 33.3733 568.644 34.2267 567.897 34.92C567.204 35.6133 566.377 35.96 565.417 35.96H512.297C511.284 35.96 510.43 35.6133 509.737 34.92C509.044 34.2267 508.697 33.3733 508.697 32.36C508.697 31.3467 509.044 30.4933 509.737 29.8C510.43 29.1067 511.284 28.76 512.297 28.76H565.417Z" fill="white"/>
</svg>
