<svg
  className="h-4 w-4 fill-current"
  width="81"
  height="141"
  viewBox="0 0 81 141"
  fill="none"
  xmlns="http://www.w3.org/2000/svg"
>
  <path
    fillRule="evenodd"
    clipRule="evenodd"
    d="M3.15294 78.5512C1.18164 76.5793 0.0742188 73.9051 0.0742188 71.1169C0.0742188 68.3286 1.18164 65.6545 3.15294 63.6826L62.6377 4.19785C63.6077 3.19354 64.768 2.39246 66.0509 1.84137C67.3338 1.29028 68.7136 1.0002 70.1098 0.988068C71.506 0.975935 72.8906 1.24199 74.1829 1.77071C75.4752 2.29942 76.6493 3.08021 77.6366 4.06752C78.6239 5.05482 79.4047 6.22887 79.9334 7.52115C80.4621 8.81344 80.7282 10.1981 80.716 11.5943C80.7039 12.9905 80.4138 14.3703 79.8627 15.6532C79.3116 16.9361 78.5106 18.0964 77.5062 19.0664L25.4558 71.1169L77.5062 123.167C79.4217 125.151 80.4816 127.807 80.4576 130.564C80.4336 133.321 79.3278 135.958 77.3782 137.908C75.4285 139.857 72.7912 140.963 70.0341 140.987C67.2771 141.011 64.6209 139.951 62.6377 138.036L3.15294 78.5512Z"
    fill="currentColor"
  />
</svg>
