<svg width="400" height="390" viewBox="0 0 400 390" fill="none" xmlns="http://www.w3.org/2000/svg">
<path d="M200 0C173.736 0 147.728 5.16905 123.463 15.212C99.1982 25.255 77.1504 39.9752 58.5786 58.5322C21.0714 96.0097 0 146.84 0 199.841C0 288.171 57.4 363.112 136.8 389.69C146.8 391.289 150 385.094 150 379.698V345.925C94.6 357.916 82.8 319.147 82.8 319.147C73.6 295.965 60.6 289.77 60.6 289.77C42.4 277.38 62 277.779 62 277.779C82 279.178 92.6 298.363 92.6 298.363C110 328.739 139.4 319.746 150.8 314.95C152.6 301.96 157.8 293.167 163.4 288.171C119 283.175 72.4 265.989 72.4 189.849C72.4 167.667 80 149.881 93 135.692C91 130.696 84 109.913 95 82.9341C95 82.9341 111.8 77.5384 150 103.318C165.8 98.9214 183 96.7232 200 96.7232C217 96.7232 234.2 98.9214 250 103.318C288.2 77.5384 305 82.9341 305 82.9341C316 109.913 309 130.696 307 135.692C320 149.881 327.6 167.667 327.6 189.849C327.6 266.189 280.8 282.975 236.2 287.971C243.4 294.166 250 306.357 250 324.942V379.698C250 385.094 253.2 391.489 263.4 389.69C342.8 362.912 400 288.171 400 199.841C400 173.598 394.827 147.611 384.776 123.365C374.725 99.1195 359.993 77.0891 341.421 58.5322C322.85 39.9752 300.802 25.255 276.537 15.212C252.272 5.16905 226.264 0 200 0Z" fill="#D2B5F9"/>
</svg>
