<svg width="400" height="400" viewBox="0 0 400 400" fill="none" xmlns="http://www.w3.org/2000/svg">
<path d="M200 0C89.5417 0 0 89.5417 0 200C0 310.458 89.5417 400 200 400C310.458 400 400 310.458 400 200C400 89.5417 310.458 0 200 0ZM151.042 282.896H110.542V152.562H151.042V282.896ZM130.542 136.562C117.75 136.562 109.479 127.5 109.479 116.292C109.479 104.854 118 96.0625 131.062 96.0625C144.125 96.0625 152.125 104.854 152.375 116.292C152.375 127.5 144.125 136.562 130.542 136.562ZM298.958 282.896H258.458V210.667C258.458 193.854 252.583 182.437 237.938 182.437C226.75 182.437 220.104 190.167 217.167 197.604C216.083 200.25 215.812 204 215.812 207.729V282.875H175.292V194.125C175.292 177.854 174.771 164.25 174.229 152.542H209.417L211.271 170.646H212.083C217.417 162.146 230.479 149.604 252.333 149.604C278.979 149.604 298.958 167.458 298.958 205.833V282.896Z" fill="#D2B5F9"/>
</svg>
