<svg
  className="h-4 w-4 fill-current"
  width="81"
  height="141"
  viewBox="0 0 81 141"
  fill="none"
  xmlns="http://www.w3.org/2000/svg"
>
  <path
    fillRule="evenodd"
    clipRule="evenodd"
    d="M77.6381 63.4242C79.6094 65.3961 80.7168 68.0702 80.7168 70.8585C80.7168 73.6467 79.6094 76.3208 77.6381 78.2927L18.1533 137.777C17.1833 138.782 16.023 139.583 14.7401 140.134C13.4572 140.685 12.0774 140.975 10.6812 140.987C9.285 140.999 7.90037 140.733 6.60808 140.205C5.3158 139.676 4.14174 138.895 3.15443 137.908C2.16713 136.921 1.38634 135.746 0.857628 134.454C0.328911 133.162 0.0628586 131.777 0.0749893 130.381C0.0871277 128.985 0.377205 127.605 0.928291 126.322C1.47939 125.039 2.28046 123.879 3.28477 122.909L55.3352 70.8585L3.28477 18.808C1.36934 16.8248 0.309456 14.1686 0.33342 11.4116C0.357376 8.6545 1.46325 6.01714 3.41286 4.06752C5.36247 2.11792 7.99983 1.01202 10.7569 0.988068C13.514 0.964111 16.1701 2.02399 18.1533 3.93942L77.6381 63.4242Z"
    fill="currentColor"
  />
</svg>
