<svg width="140" height="140" viewBox="0 0 140 140" fill="none" xmlns="http://www.w3.org/2000/svg">
<path fill-rule="evenodd" clip-rule="evenodd" d="M2.92893 2.92893C6.83418 -0.976311 13.1658 -0.976311 17.0711 2.92893L70 55.8579L122.929 2.92893C126.834 -0.976311 133.166 -0.976311 137.071 2.92893C140.976 6.83418 140.976 13.1658 137.071 17.0711L84.1421 70L137.071 122.929C140.976 126.834 140.976 133.166 137.071 137.071C133.166 140.976 126.834 140.976 122.929 137.071L70 84.1421L17.0711 137.071C13.1658 140.976 6.83418 140.976 2.92893 137.071C-0.976311 133.166 -0.976311 126.834 2.92893 122.929L55.8579 70L2.92893 17.0711C-0.976311 13.1658 -0.976311 6.83418 2.92893 2.92893Z" fill="white"/>
</svg>
